<?xml version="1.0" encoding="UTF-8"?>
<svg id="Layer_1" data-name="Layer 1" xmlns="http://www.w3.org/2000/svg" viewBox="0 0 1000 1000">
  <defs>
    <style>
      .cls-1 {
        fill: #fff;
      }
    </style>
  </defs>
  <path class="cls-1" d="M980.78,983.27h-193.18v-355.07c0-8.45-11.5-51.79-15.5-61.79-36.44-91.07-159.22-62.6-191.06,19.41-4.91,12.65-15.59,54.9-15.59,66.53v330.92h-193.18V355.25h178.69v82.13c66.5-91,189.79-109.94,293.53-78.64,107.95,32.57,130.82,134.5,136.49,235.45,7.15,127.22-5.74,261.19-.2,389.09Z"/>
  <rect class="cls-1" x="43.86" y="345.59" width="193.18" height="628.02"/>
  <path class="cls-1" d="M119.96,18.37c167.79-24.09,192.78,225.25,37,244.67C-6.32,283.38-37.58,40.99,119.96,18.37Z"/>
</svg>