<?xml version="1.0" encoding="UTF-8"?>
<svg id="Layer_1" data-name="Layer 1" xmlns="http://www.w3.org/2000/svg" viewBox="0 0 1000 1000">
  <defs>
    <style>
      .cls-1 {
        fill: #fff;
      }
    </style>
  </defs>
  <path class="cls-1" d="M458.35,8.99c393.67-28.13,659.4,398.81,458.76,740.94-199.14,339.58-702.79,318.09-869.73-37.67C-100.94,396.2,112.46,33.71,458.35,8.99ZM433.08,51.08C208.05,73.99,28.83,290.3,38.4,514.97c15.26,358.5,417.29,562.57,714.23,356.69C1135.33,606.34,913.05,2.22,433.08,51.08Z"/>
  <path d="M433.08,51.08C913.05,2.22,1135.33,606.34,752.63,871.67c-296.95,205.87-698.97,1.81-714.23-356.69C28.83,290.3,208.05,73.99,433.08,51.08ZM471.83,91.94c-69.36,21.02-104.24,106.27-126.05,170.21,1.51,7.22,47.28,12.86,57.31,14.32,22.8,3.32,45.57,6.45,68.74,4.91V91.94ZM513.92,91.94v189.44c42.56,1.76,84.94-5.83,126.32-14.79-24.17-65.04-54.94-149.87-126.32-174.64ZM391.87,100.4c-74.11,15.1-137.9,58.13-193.57,107.28,34.26,23.08,74.13,37.04,113.57,48.44,12.48-57.75,43.38-110.06,80-155.73ZM787.46,205.67c-32.4-22.26-58.9-48.7-93.96-68.14-13.19-7.31-90.91-43.66-99.62-37.12,36.85,45.67,64.03,99.21,80.01,155.73,11.05.35,119.01-42.39,113.58-50.47ZM80.44,479.23h193.59l25.11-189.28-127.63-51.02c-54,68.71-89.67,151.49-91.08,240.3ZM905.3,479.23c-2.07-62.28-21.16-127.92-51.32-182.3-5.54-9.99-35.81-57.52-43.17-57.69-16.03-.37-96.49,52.27-123.84,51.06,8.41,62.75,23.63,124.88,20.53,188.93h197.8ZM471.83,319.26l-138.8-16.77c-10.71,58.28-21.48,117.07-21.12,176.74h159.92v-159.97ZM673.84,479.23c-6.15-58.53-6.13-118.71-25.04-175.09l-134.88,15.13v159.97h159.92ZM274.03,521.33H80.44c.48,48.22,13.07,98.62,31.63,143.07,6.8,16.3,48.7,96.57,62.89,96.96,39.77-20.1,80.16-41.6,124.34-50.62l-25.26-189.4ZM471.83,521.33h-159.92c.38,59.67,10.11,118.49,21.05,176.83l138.87-16.86v-159.97ZM673.84,521.33h-159.92v159.97c20.03-6.37,127.93,20.18,134.92,15.09,18.84-56.39,18.87-116.54,25-175.06ZM905.3,521.33h-197.8c3.73,63.97-12.25,126.32-20.71,189.13,43.69,9.93,83.88,31.59,124,50.89,7.38-.2,37.65-47.71,43.2-57.72,29.93-53.96,50.29-120.53,51.32-182.3ZM471.83,719.18c-42.73-2.52-84.85,5.91-126.31,14.78,22.21,65.07,55.17,151.59,126.31,174.65v-189.44ZM513.92,719.18v189.44c71.85-25.33,102.12-108.65,126.32-174.64-41.37-8.97-83.75-16.56-126.32-14.79ZM311.89,744.43c-5.36-4.86-113.29,39.77-113.53,48.42,54.22,50.3,119.49,93.95,193.51,107.31-37.09-45.54-66.78-98.26-79.98-155.73ZM593.88,900.16c73.91-13.79,138.86-57.34,193.51-107.31-.07-6.47-107.06-52.77-113.29-48.24-15.86,57-44.34,108.95-80.22,155.54Z"/>
  <path class="cls-1" d="M905.3,479.23h-197.8c3.1-64.05-12.12-126.18-20.53-188.93,27.35,1.2,107.81-51.43,123.84-51.06,7.36.17,37.63,47.7,43.17,57.69,30.16,54.38,49.25,120.03,51.32,182.3Z"/>
  <path class="cls-1" d="M905.3,521.33c-1.03,61.77-21.39,128.34-51.32,182.3-5.55,10.01-35.81,57.52-43.2,57.72-40.11-19.31-80.31-40.96-124-50.89,8.46-62.81,24.45-125.16,20.71-189.13h197.8Z"/>
  <path class="cls-1" d="M80.44,479.23c1.4-88.81,37.07-171.59,91.08-240.3l127.63,51.02-25.11,189.28H80.44Z"/>
  <path class="cls-1" d="M274.03,521.33l25.26,189.4c-44.18,9.03-84.57,30.53-124.34,50.62-14.18-.39-56.08-80.66-62.89-96.96-18.55-44.45-31.15-94.85-31.63-143.07h193.59Z"/>
  <path class="cls-1" d="M471.83,319.26v159.97h-159.92c-.36-59.67,10.41-118.46,21.12-176.74l138.8,16.77Z"/>
  <path class="cls-1" d="M471.83,521.33v159.97l-138.87,16.86c-10.94-58.33-20.67-117.16-21.05-176.83h159.92Z"/>
  <path class="cls-1" d="M673.84,521.33c-6.13,58.52-6.16,118.67-25,175.06-6.99,5.09-114.89-21.46-134.92-15.09v-159.97h159.92Z"/>
  <path class="cls-1" d="M673.84,479.23h-159.92v-159.97l134.88-15.13c18.91,56.39,18.89,116.57,25.04,175.09Z"/>
  <path class="cls-1" d="M471.83,91.94v189.44c-23.17,1.54-45.94-1.59-68.74-4.91-10.02-1.46-55.8-7.1-57.31-14.32,21.81-63.94,56.69-149.2,126.05-170.21Z"/>
  <path class="cls-1" d="M471.83,719.18v189.44c-71.14-23.06-104.1-109.59-126.31-174.65,41.46-8.87,83.58-17.3,126.31-14.78Z"/>
  <path class="cls-1" d="M513.92,719.18c42.56-1.76,84.94,5.83,126.32,14.79-24.2,65.99-54.47,149.32-126.32,174.64v-189.44Z"/>
  <path class="cls-1" d="M513.92,91.94c71.38,24.77,102.14,109.61,126.32,174.64-41.37,8.97-83.75,16.56-126.32,14.79V91.94Z"/>
  <path class="cls-1" d="M593.88,900.16c35.88-46.59,64.36-98.54,80.22-155.54,6.23-4.53,113.22,41.77,113.29,48.24-54.65,49.97-119.6,93.52-193.51,107.31Z"/>
  <path class="cls-1" d="M311.89,744.43c13.2,57.46,42.9,110.18,79.98,155.73-74.02-13.36-139.29-57.01-193.51-107.31.24-8.65,108.17-53.28,113.53-48.42Z"/>
  <path class="cls-1" d="M787.46,205.67c5.43,8.08-102.53,50.82-113.58,50.47-15.98-56.53-43.15-110.06-80.01-155.73,8.71-6.54,86.44,29.81,99.62,37.12,35.06,19.44,61.56,45.88,93.96,68.14Z"/>
  <path class="cls-1" d="M391.87,100.4c-36.62,45.67-67.52,97.98-80,155.73-39.44-11.4-79.31-25.36-113.57-48.44,55.67-49.16,119.46-92.18,193.57-107.28Z"/>
</svg>